# xmcd
#
# Track frame offsets: 
#        150
#        29890
#        61182
#        96602
#        111907
#        131157
#        154192
#        182690
#        209475
#        235270
#        256395
#
# Disc length: 3699 seconds
#
# Revision: 3
# Processed by: cddbd v1.4PL0 Copyright (c) Steve Scherf et al.
# Submitted via: ExactAudioCopy v0.90b3
#
DISCID=a70e710b
DTITLE=Lambchop - Is A Woman
DYEAR=2001
DGENRE=
TTITLE0=The Daily Growl
TTITLE1=The New Cobweb Summer
TTITLE2=My Blue Wave
TTITLE3=I Can Hardly Spell My Name
TTITLE4=Autumn's Vicar
TTITLE5=Flick
TTITLE6=Caterpillar
TTITLE7=D Scott Parsley
TTITLE8=Bugs
TTITLE9=The Old Matchbook Trick
TTITLE10=Is A Woman
EXTD=
EXTT0=
EXTT1=
EXTT2=
EXTT3=
EXTT4=
EXTT5=
EXTT6=
EXTT7=
EXTT8=
EXTT9=
EXTT10=
PLAYORDER=
